# xmcd
#
# Track frame offsets:
#	150
#	11480
#	22290
#	31827
#	44055
#	52837
#	62852
#	71635
#	83407
#	95560
#	106445
#	117647
#	128770
#	138900
#	151407
#	163490
#	174147
#	186235
#	197997
#	210897
#	221860
#	234420
#	247237
#	256495
#	267070
#	277732
#	290422
#	303920
#	313555
#	326447
#
# Disc length: 4515 seconds
#
# Revision: 2
# Processed by: cddbd v1.5.2PL0 Copyright (c) Steve Scherf et al.
# Submitted via: EasyCDDAExtractor 8.2.3.1
#
DISCID=b611a11e
DTITLE=Stonewall Jackson - Waterloo Cd 2
DYEAR=1900
DGENRE=Country
TTITLE0=I'm Gonna Find You 
TTITLE1=Wedding Bells For You And Him 
TTITLE2=A Man Without A Home 
TTITLE3=One Look At Heaven 
TTITLE4=Greener Pastures 
TTITLE5=I Pawned My Past Today 
TTITLE6=Greener Pastures 
TTITLE7=Sweetheart Of The Town 
TTITLE8=Lives Like Mine 
TTITLE9=Hungry For Love 
TTITLE10=The Sadness In A Song 
TTITLE11=I Learned It All From You 
TTITLE12=For The Last Time 
TTITLE13=Leona 
TTITLE14=Second Choice 
TTITLE15=Sorrows Tearing Down The House (That Happiness Once Built)  
TTITLE16=A Wound Time Can't Erase 
TTITLE17=Everybody But Me 
TTITLE18=Give In O The Blues 
TTITLE19=Slowly 
TTITLE20=You Haven't Heard 
TTITLE21=Old Showboat 
TTITLE22=Can't Hang Up The Phone 
TTITLE23=A Toast To The Bride 
TTITLE24=Big House On The Corner 
TTITLE25=B.J. The D.J. 
TTITLE26=Don't Be Angry 
TTITLE27=East Of West Berlin 
TTITLE28=Pins And Needles (In My Heart) 
TTITLE29=No One Will Ever Know 
EXTD=
EXTT0=
EXTT1=
EXTT2=
EXTT3=
EXTT4=
EXTT5=
EXTT6=
EXTT7=
EXTT8=
EXTT9=
EXTT10=
EXTT11=
EXTT12=
EXTT13=
EXTT14=
EXTT15=
EXTT16=
EXTT17=
EXTT18=
EXTT19=
EXTT20=
EXTT21=
EXTT22=
EXTT23=
EXTT24=
EXTT25=
EXTT26=
EXTT27=
EXTT28=
EXTT29=
PLAYORDER=
